<svg width="30" height="30" viewBox="0 0 30 30" fill="none" xmlns="http://www.w3.org/2000/svg">
<mask id="mask0_1_561" style="mask-type:luminance" maskUnits="userSpaceOnUse" x="0" y="0" width="30" height="30">
<path d="M0 0H30V30H0V0Z" fill="white"/>
</mask>
<g mask="url(#mask0_1_561)">
<path fill-rule="evenodd" clip-rule="evenodd" d="M25 11.25C27.075 11.25 28.75 12.925 28.75 15C28.75 17.075 27.075 18.75 25 18.75H24.05L24.725 19.425C25.4273 20.1281 25.8217 21.0812 25.8217 22.075C25.8217 23.0688 25.4273 24.0219 24.725 24.725C24.0219 25.4273 23.0688 25.8217 22.075 25.8217C21.0812 25.8217 20.1281 25.4273 19.425 24.725L18.75 24.05V25C18.75 27.075 17.075 28.75 15 28.75C12.925 28.75 11.25 27.075 11.25 25V24.05L10.575 24.725C9.87187 25.4273 8.91875 25.8217 7.925 25.8217C6.93125 25.8217 5.97813 25.4273 5.275 24.725C4.57275 24.0219 4.1783 23.0688 4.1783 22.075C4.1783 21.0812 4.57275 20.1281 5.275 19.425L5.95 18.75H5C2.925 18.75 1.25 17.075 1.25 15C1.25 12.925 2.925 11.25 5 11.25H5.95L5.275 10.575C4.57275 9.87187 4.1783 8.91875 4.1783 7.925C4.1783 6.93125 4.57275 5.97813 5.275 5.275C5.97813 4.57275 6.93125 4.1783 7.925 4.1783C8.91875 4.1783 9.87187 4.57275 10.575 5.275L11.25 5.95V5C11.25 2.925 12.925 1.25 15 1.25C17.075 1.25 18.75 2.925 18.75 5V5.95L19.425 5.275C20.1281 4.57275 21.0812 4.1783 22.075 4.1783C23.0688 4.1783 24.0219 4.57275 24.725 5.275C25.4273 5.97813 25.8217 6.93125 25.8217 7.925C25.8217 8.91875 25.4273 9.87187 24.725 10.575L24.05 11.25H25ZM20 15C20 16.3261 19.4732 17.5979 18.5355 18.5355C17.5979 19.4732 16.3261 20 15 20C13.6739 20 12.4021 19.4732 11.4645 18.5355C10.5268 17.5979 10 16.3261 10 15C10 13.6739 10.5268 12.4021 11.4645 11.4645C12.4021 10.5268 13.6739 10 15 10C16.3261 10 17.5979 10.5268 18.5355 11.4645C19.4732 12.4021 20 13.6739 20 15Z" fill="black" fill-opacity="0.16"/>
<path d="M24.05 11.25L23.3875 10.5875C23.2566 10.7186 23.1674 10.8856 23.1313 11.0673C23.0952 11.2491 23.1138 11.4375 23.1846 11.6087C23.2555 11.7799 23.3756 11.9262 23.5296 12.0292C23.6836 12.1323 23.8647 12.1873 24.05 12.1875V11.25ZM18.75 5.95H17.8125C17.8127 6.1353 17.8677 6.3164 17.9708 6.47042C18.0738 6.62444 18.2201 6.74447 18.3913 6.81536C18.5626 6.88625 18.7509 6.90481 18.9327 6.86871C19.1144 6.8326 19.2814 6.74345 19.4125 6.6125L18.75 5.95ZM11.25 5.95L10.5875 6.6125C10.7186 6.74345 10.8856 6.8326 11.0673 6.86871C11.2491 6.90481 11.4375 6.88625 11.6087 6.81536C11.7799 6.74447 11.9262 6.62444 12.0292 6.47042C12.1323 6.3164 12.1873 6.1353 12.1875 5.95H11.25ZM5.95 11.25V12.1875C6.1353 12.1873 6.3164 12.1323 6.47042 12.0292C6.62444 11.9262 6.74447 11.7799 6.81536 11.6087C6.88625 11.4375 6.90481 11.2491 6.86871 11.0673C6.8326 10.8856 6.74345 10.7186 6.6125 10.5875L5.95 11.25ZM5.95 18.75L6.6125 19.4125C6.74345 19.2814 6.8326 19.1144 6.86871 18.9327C6.90481 18.7509 6.88625 18.5626 6.81536 18.3913C6.74447 18.2201 6.62444 18.0738 6.47042 17.9708C6.3164 17.8677 6.1353 17.8127 5.95 17.8125V18.75ZM11.25 24.05H12.1875C12.1873 23.8647 12.1323 23.6836 12.0292 23.5296C11.9262 23.3756 11.7799 23.2555 11.6087 23.1846C11.4375 23.1138 11.2491 23.0952 11.0673 23.1313C10.8856 23.1674 10.7186 23.2566 10.5875 23.3875L11.25 24.05ZM18.75 24.05L19.4125 23.3875C19.2814 23.2566 19.1144 23.1674 18.9327 23.1313C18.7509 23.0952 18.5626 23.1138 18.3913 23.1846C18.2201 23.2555 18.0738 23.3756 17.9708 23.5296C17.8677 23.6836 17.8127 23.8647 17.8125 24.05H18.75ZM24.05 18.75V17.8125C23.8647 17.8127 23.6836 17.8677 23.5296 17.9708C23.3756 18.0738 23.2555 18.2201 23.1846 18.3913C23.1138 18.5626 23.0952 18.7509 23.1313 18.9327C23.1674 19.1144 23.2566 19.2814 23.3875 19.4125L24.05 18.75ZM29.6875 15C29.6882 14.3842 29.5674 13.7744 29.332 13.2054C29.0967 12.6364 28.7514 12.1194 28.316 11.684C27.8806 11.2486 27.3636 10.9033 26.7946 10.668C26.2256 10.4326 25.6158 10.3118 25 10.3125V12.1875C25.3695 12.1868 25.7356 12.2591 26.0771 12.4002C26.4186 12.5414 26.7289 12.7485 26.9902 13.0098C27.2515 13.2711 27.4586 13.5814 27.5998 13.9229C27.7409 14.2645 27.8132 14.6305 27.8125 15H29.6875ZM25 10.3125H24.05V12.1875H25V10.3125ZM24.7125 11.9125L25.3875 11.2375L24.0625 9.9125L23.3875 10.5875L24.7125 11.9125ZM25.3875 11.2375C26.2653 10.3586 26.7584 9.16719 26.7584 7.925C26.7584 6.68281 26.2653 5.49141 25.3875 4.6125L24.0625 5.9375C24.5892 6.46485 24.885 7.17969 24.885 7.925C24.885 8.67032 24.5892 9.38516 24.0625 9.9125L25.3875 11.2375ZM25.3875 4.6125C24.5086 3.73469 23.3172 3.24163 22.075 3.24163C20.8328 3.24163 19.6414 3.73469 18.7625 4.6125L20.0875 5.9375C20.6148 5.41081 21.3297 5.11498 22.075 5.11498C22.8203 5.11498 23.5352 5.41081 24.0625 5.9375L25.3875 4.6125ZM18.7625 4.6125L18.0875 5.2875L19.4125 6.6125L20.0875 5.9375L18.7625 4.6125ZM19.6875 5.95V5H17.8125V5.95H19.6875ZM19.6875 5C19.6882 4.38425 19.5674 3.77441 19.332 3.2054C19.0967 2.63639 18.7514 2.11938 18.316 1.68397C17.8806 1.24857 17.3636 0.903313 16.7946 0.667977C16.2256 0.432642 15.6158 0.311845 15 0.312503V2.1875C15.3695 2.18684 15.7356 2.25914 16.0771 2.40025C16.4186 2.54136 16.7289 2.7485 16.9902 3.0098C17.2515 3.27109 17.4586 3.5814 17.5998 3.92293C17.7409 4.26445 17.8132 4.63048 17.8125 5H19.6875ZM15 0.312503C14.3842 0.311845 13.7744 0.432642 13.2054 0.667977C12.6364 0.903313 12.1194 1.24857 11.684 1.68397C11.2486 2.11938 10.9033 2.63639 10.668 3.2054C10.4326 3.77441 10.3118 4.38425 10.3125 5H12.1875C12.1868 4.63048 12.2591 4.26445 12.4002 3.92293C12.5414 3.5814 12.7485 3.27109 13.0098 3.0098C13.2711 2.7485 13.5814 2.54136 13.9229 2.40025C14.2645 2.25914 14.6305 2.18684 15 2.1875V0.312503ZM10.3125 5V5.95H12.1875V5H10.3125ZM11.9125 5.2875L11.2375 4.6125L9.9125 5.9375L10.5875 6.6125L11.9125 5.2875ZM11.2375 4.6125C10.3586 3.73469 9.16719 3.24163 7.925 3.24163C6.68281 3.24163 5.49141 3.73469 4.6125 4.6125L5.9375 5.9375C6.46485 5.41081 7.17969 5.11498 7.925 5.11498C8.67032 5.11498 9.38516 5.41081 9.9125 5.9375L11.2375 4.6125ZM4.6125 4.6125C3.73469 5.49141 3.24163 6.68281 3.24163 7.925C3.24163 9.16719 3.73469 10.3586 4.6125 11.2375L5.9375 9.9125C5.41081 9.38516 5.11498 8.67032 5.11498 7.925C5.11498 7.17969 5.41081 6.46485 5.9375 5.9375L4.6125 4.6125ZM4.6125 11.2375L5.2875 11.9125L6.6125 10.5875L5.9375 9.9125L4.6125 11.2375ZM5.95 10.3125H5V12.1875H5.95V10.3125ZM5 10.3125C4.38425 10.3118 3.77441 10.4326 3.2054 10.668C2.63639 10.9033 2.11938 11.2486 1.68397 11.684C1.24857 12.1194 0.903313 12.6364 0.667977 13.2054C0.432642 13.7744 0.311845 14.3842 0.312503 15H2.1875C2.18684 14.6305 2.25914 14.2645 2.40025 13.9229C2.54136 13.5814 2.7485 13.2711 3.0098 13.0098C3.27109 12.7485 3.5814 12.5414 3.92293 12.4002C4.26445 12.2591 4.63048 12.1868 5 12.1875V10.3125ZM0.312503 15C0.311845 15.6158 0.432642 16.2256 0.667977 16.7946C0.903313 17.3636 1.24857 17.8806 1.68397 18.316C2.11938 18.7514 2.63639 19.0967 3.2054 19.332C3.77441 19.5674 4.38425 19.6882 5 19.6875V17.8125C4.63048 17.8132 4.26445 17.7409 3.92293 17.5998C3.5814 17.4586 3.27109 17.2515 3.0098 16.9902C2.7485 16.7289 2.54136 16.4186 2.40025 16.0771C2.25914 15.7356 2.18684 15.3695 2.1875 15H0.312503ZM5 19.6875H5.95V17.8125H5V19.6875ZM5.2875 18.0875L4.6125 18.7625L5.9375 20.0875L6.6125 19.4125L5.2875 18.0875ZM4.6125 18.7625C3.73469 19.6414 3.24163 20.8328 3.24163 22.075C3.24163 23.3172 3.73469 24.5086 4.6125 25.3875L5.9375 24.0625C5.41081 23.5352 5.11498 22.8203 5.11498 22.075C5.11498 21.3297 5.41081 20.6148 5.9375 20.0875L4.6125 18.7625ZM4.6125 25.3875C5.49141 26.2653 6.68281 26.7584 7.925 26.7584C9.16719 26.7584 10.3586 26.2653 11.2375 25.3875L9.9125 24.0625C9.38516 24.5892 8.67032 24.885 7.925 24.885C7.17969 24.885 6.46485 24.5892 5.9375 24.0625L4.6125 25.3875ZM11.2375 25.3875L11.9125 24.7125L10.5875 23.3875L9.9125 24.0625L11.2375 25.3875ZM10.3125 24.05V25H12.1875V24.05H10.3125ZM10.3125 25C10.3118 25.6158 10.4326 26.2256 10.668 26.7946C10.9033 27.3636 11.2486 27.8806 11.684 28.316C12.1194 28.7514 12.6364 29.0967 13.2054 29.332C13.7744 29.5674 14.3842 29.6882 15 29.6875V27.8125C14.6305 27.8132 14.2645 27.7409 13.9229 27.5998C13.5814 27.4586 13.2711 27.2515 13.0098 26.9902C12.7485 26.7289 12.5414 26.4186 12.4002 26.0771C12.2591 25.7356 12.1868 25.3695 12.1875 25H10.3125ZM15 29.6875C15.6158 29.6882 16.2256 29.5674 16.7946 29.332C17.3636 29.0967 17.8806 28.7514 18.316 28.316C18.7514 27.8806 19.0967 27.3636 19.332 26.7946C19.5674 26.2256 19.6882 25.6158 19.6875 25H17.8125C17.8132 25.3695 17.7409 25.7356 17.5998 26.0771C17.4586 26.4186 17.2515 26.7289 16.9902 26.9902C16.7289 27.2515 16.4186 27.4586 16.0771 27.5998C15.7356 27.7409 15.3695 27.8132 15 27.8125V29.6875ZM19.6875 25V24.05H17.8125V25H19.6875ZM18.0875 24.7125L18.7625 25.3875L20.0875 24.0625L19.4125 23.3875L18.0875 24.7125ZM18.7625 25.3875C19.6414 26.2653 20.8328 26.7584 22.075 26.7584C23.3172 26.7584 24.5086 26.2653 25.3875 25.3875L24.0625 24.0625C23.5352 24.5892 22.8203 24.885 22.075 24.885C21.3297 24.885 20.6148 24.5892 20.0875 24.0625L18.7625 25.3875ZM25.3875 25.3875C26.2653 24.5086 26.7584 23.3172 26.7584 22.075C26.7584 20.8328 26.2653 19.6414 25.3875 18.7625L24.0625 20.0875C24.5892 20.6148 24.885 21.3297 24.885 22.075C24.885 22.8203 24.5892 23.5352 24.0625 24.0625L25.3875 25.3875ZM25.3875 18.7625L24.7125 18.0875L23.3875 19.4125L24.0625 20.0875L25.3875 18.7625ZM24.05 19.6875H25V17.8125H24.05V19.6875ZM25 19.6875C25.6158 19.6882 26.2256 19.5674 26.7946 19.332C27.3636 19.0967 27.8806 18.7514 28.316 18.316C28.7514 17.8806 29.0967 17.3636 29.332 16.7946C29.5674 16.2256 29.6882 15.6158 29.6875 15H27.8125C27.8132 15.3695 27.7409 15.7356 27.5998 16.0771C27.4586 16.4186 27.2515 16.7289 26.9902 16.9902C26.7289 17.2515 26.4186 17.4586 26.0771 17.5998C25.7356 17.7409 25.3695 17.8132 25 17.8125V19.6875ZM19.0625 15C19.0625 16.0774 18.6345 17.1108 17.8726 17.8726C17.1108 18.6345 16.0774 19.0625 15 19.0625V20.9375C16.5747 20.9375 18.085 20.3119 19.1984 19.1984C20.3119 18.085 20.9375 16.5747 20.9375 15H19.0625ZM15 19.0625C13.9226 19.0625 12.8892 18.6345 12.1274 17.8726C11.3655 17.1108 10.9375 16.0774 10.9375 15H9.0625C9.0625 16.5747 9.68806 18.085 10.8016 19.1984C11.9151 20.3119 13.4253 20.9375 15 20.9375V19.0625ZM10.9375 15C10.9375 13.9226 11.3655 12.8892 12.1274 12.1274C12.8892 11.3655 13.9226 10.9375 15 10.9375V9.0625C13.4253 9.0625 11.9151 9.68806 10.8016 10.8016C9.68806 11.9151 9.0625 13.4253 9.0625 15H10.9375ZM15 10.9375C16.0774 10.9375 17.1108 11.3655 17.8726 12.1274C18.6345 12.8892 19.0625 13.9226 19.0625 15H20.9375C20.9375 13.4253 20.3119 11.9151 19.1984 10.8016C18.085 9.68806 16.5747 9.0625 15 9.0625V10.9375Z" fill="black"/>
</g>
</svg>
